# xmcd
#
# Track frame offsets:
#	150
#	15770
#	28785
#	39093
#	53642
#	66147
#	77401
#	89128
#	100537
#	112060
#
# Disc length: 1632 seconds
# Revision: 0
# Processed by: cddbd v1.5.2PL0 Copyright (c) Steve Scherf et al.
# Submitted via: dBpowerAMP V12.0
#
DISCID=6b065e0a
DTITLE=James Hunter Six - Whatever It Takes
DYEAR=2018
DGENRE=Blues
TTITLE0=I Don't Wanna Be Without You
TTITLE1=Whatever It Takes
TTITLE2=I Got Eyes
TTITLE3=Mm-Hmm
TTITLE4=Blisters
TTITLE5=I Should've Spoke Up
TTITLE6=Show Her
TTITLE7=Don't Let Pride Take You For A Ride
TTITLE8=How Long
TTITLE9=It Was Gonna Be You
EXTD=
EXTT0=
EXTT1=
EXTT2=
EXTT3=
EXTT4=
EXTT5=
EXTT6=
EXTT7=
EXTT8=
EXTT9=
PLAYORDER=
